<svg xmlns="http://www.w3.org/2000/svg" viewBox="0 0 64 64"><g data-name="Layer 2"><path d="M14.84 43.11a7.17 7.17 0 0 0 1.53-.44l1.48-11.1A11.42 11.42 0 0 1 22 24.22l-3.28-3A1 1 0 0 0 18 21s-4.63 0-7.29-2.71A75.07 75.07 0 0 1 4.8 11.4 1 1 0 0 0 3 12.11 33.64 33.64 0 0 0 5.86 22.67h0l-1.46-.59A1 1 0 0 0 3 23a9.43 9.43 0 0 0 .2 1.73 11.19 11.19 0 0 0 4 6.87L5 31.75a1 1 0 0 0-.82 1.44 12.31 12.31 0 0 0 3.52 4.07A8.5 8.5 0 0 0 10 38.57L7.7 40.74A1 1 0 0 0 8 42.37 12.86 12.86 0 0 0 14.84 43.11zM59.63 22.07l-1.46.59h0A33.64 33.64 0 0 0 61 12.11a1 1 0 0 0-1.79-.71 75.07 75.07 0 0 1-5.91 6.89C50.63 21 46 21 46 21a1 1 0 0 0-.67.26l-3.28 3a11.44 11.44 0 0 1 4.1 7.35l1.49 11.1a6.93 6.93 0 0 0 1.52.44A12.86 12.86 0 0 0 56 42.37a1 1 0 0 0 .28-1.63L54 38.57a8.5 8.5 0 0 0 2.24-1.31 12.31 12.31 0 0 0 3.52-4.07A1 1 0 0 0 59 31.75l-2.15-.15a11.19 11.19 0 0 0 4-6.87A9.43 9.43 0 0 0 61 23 1 1 0 0 0 59.63 22.07zM38 15.92l-2.65.66a2.85 2.85 0 0 1-1.79-.28A4.11 4.11 0 0 0 31 16.23c-.87.22-1.39.58-2.21.37L26 15.92A1 1 0 0 0 25 17.48a15.22 15.22 0 0 1 2.21 3.82 2.78 2.78 0 0 1 1.29-.3h7.06a3 3 0 0 1 1.34.32l.26.13a32.13 32.13 0 0 1 2-4.08A1 1 0 0 0 38 15.92zM31 34h-.29a2 2 0 0 0 0 4H31zM35.29 42a2 2 0 0 0-2-2H33v4h.29A2 2 0 0 0 35.29 42z"/><path d="M17.43 49.84A4.55 4.55 0 0 0 21.94 55H42.06a4.55 4.55 0 0 0 4.51-5.16l-2.4-18A9.44 9.44 0 0 0 39 24.63L36 23.11a1 1 0 0 0-.45-.11H28.47c-.42 0-.5.17-3.5 1.63a9.44 9.44 0 0 0-5.14 7.2zM30.71 40a4 4 0 0 1 0-8H31V29.57h2V32h.29a4 4 0 0 1 4 4h-2a2 2 0 0 0-2-2H33v4h.29a4 4 0 0 1 0 8H33v2.43H31V46h-.29a4 4 0 0 1-4-4h2a2 2 0 0 0 2 2H31V40zM42 9.5C42 6.74 35.71 6 32 6S22 6.74 22 9.5 28.29 13 32 13 42 12.26 42 9.5zM32 11c-4.75 0-7.4-1-7.94-1.5C24.6 9 27.25 8 32 8s7.4 1 7.94 1.5C39.4 10 36.75 11 32 11z"/></g></svg>